<?xml version="1.0" encoding="UTF-8" standalone="no"?>
<svg
   width="425.15625pt"
   height="428.22266pt"
   viewBox="0 0 425.15627 428.22267"
   version="1.1"
   id="svg67"
   sodipodi:docname="helmo-logo.svg"
   inkscape:version="1.2.2 (b0a8486541, 2022-12-01)"
   xmlns:inkscape="http://www.inkscape.org/namespaces/inkscape"
   xmlns:sodipodi="http://sodipodi.sourceforge.net/DTD/sodipodi-0.dtd"
   xmlns="http://www.w3.org/2000/svg"
   xmlns:svg="http://www.w3.org/2000/svg">
  <defs
     id="defs71" />
  <sodipodi:namedview
     id="namedview69"
     pagecolor="#ffffff"
     bordercolor="#000000"
     borderopacity="0.25"
     inkscape:showpageshadow="2"
     inkscape:pageopacity="0.0"
     inkscape:pagecheckerboard="0"
     inkscape:deskcolor="#d1d1d1"
     inkscape:document-units="pt"
     showgrid="false"
     inkscape:zoom="1.1377084"
     inkscape:cx="283.46454"
     inkscape:cy="286.10142"
     inkscape:window-width="1920"
     inkscape:window-height="1061"
     inkscape:window-x="0"
     inkscape:window-y="0"
     inkscape:window-maximized="1"
     inkscape:current-layer="svg67" />
  <path
     style="fill:#f37014;fill-opacity:1;fill-rule:evenodd;stroke:none"
     d="m 332.4375,224.00781 c 0,8.42969 -6.89844,15.19922 -15.32813,15.19922 -8.42578,0 -15.19531,-6.76953 -15.19531,-15.19922 0,-8.42969 6.76953,-15.19922 15.19531,-15.19922 8.42969,0 15.32813,6.76953 15.32813,15.19922"
     id="path4" />
  <path
     style="fill:#6eccbd;fill-opacity:1;fill-rule:evenodd;stroke:none"
     d="m 332.4375,176.88281 c 0,8.42578 -6.89844,15.19531 -15.32813,15.19531 -8.42578,0 -15.19531,-6.76953 -15.19531,-15.19531 0,-8.42969 6.76953,-15.19922 15.19531,-15.19922 8.42969,0 15.32813,6.76953 15.32813,15.19922"
     id="path6" />
  <path
     style="fill:#de114a;fill-opacity:1;fill-rule:evenodd;stroke:none"
     d="m 379.43359,176.88281 c 0,8.42578 -6.76562,15.19531 -15.19531,15.19531 -8.42969,0 -15.19922,-6.76953 -15.19922,-15.19531 0,-8.42969 6.76953,-15.19922 15.19922,-15.19922 8.42969,0 15.19531,6.76953 15.19531,15.19922"
     id="path8" />
  <path
     style="fill:#a6d93a;fill-opacity:1;fill-rule:evenodd;stroke:none"
     d="m 379.43359,128.85937 c 0,8.42969 -6.76562,15.19922 -15.19531,15.19922 -8.42969,0 -15.19922,-6.76953 -15.19922,-15.19922 0,-8.42578 6.76953,-15.19531 15.19922,-15.19531 8.42969,0 15.19531,6.76953 15.19531,15.19531"
     id="path10" />
  <path
     style="fill:#ba4cae;fill-opacity:1;fill-rule:evenodd;stroke:none"
     d="m 425.15625,128.85937 c 0,8.42969 -6.76953,15.19922 -15.19922,15.19922 -8.42578,0 -15.19531,-6.76953 -15.19531,-15.19922 0,-8.42578 6.76953,-15.19531 15.19531,-15.19531 8.42969,0 15.19922,6.76953 15.19922,15.19531"
     id="path12" />
  <path
     style="fill:#9c9999;fill-opacity:1;fill-rule:evenodd;stroke:none"
     d="m 111.10937,114.55859 c 0,7.78906 -2.17187,14.5586 -6.51562,20.17578 -4.33985,5.6211 -9.578129,8.42969 -15.707029,8.42969 -3.06641,0 -5.7461,-1.40234 -7.91797,-4.21484 -2.04297,-2.67969 -3.19141,-6.12891 -3.19141,-10.08985 V 100.2539 c 0,-4.085929 -1.02344,-7.406249 -3.19531,-10.218749 -2.17188,-2.80859 -4.72656,-4.08593 -7.91797,-4.08593 h -22.22265 c -3.0625,0 -5.7461,1.27734 -7.78907,4.08593 -2.17187,2.8125 -3.32031,6.13282 -3.32031,10.218749 v 28.60547 c 0,3.96094 -1.02344,7.41016 -3.19141,10.08985 -2.171871,2.8125 -4.726559,4.21484 -7.921871,4.21484 -6,0 -11.238281,-2.80859 -15.578125,-8.42969 C 2.167969,129.11719 0,122.34765 0,114.55859 V 28.605469 C 0,20.816406 2.167969,14.046875 6.640625,8.425781 10.980469,2.808593 16.21875,0 22.21875,0 c 3.195312,0 5.75,1.402343 7.921871,4.214843 2.16797,2.679688 3.19141,6.128907 3.19141,10.085938 v 28.60938 c 0,4.08593 1.14844,7.40625 3.32031,10.21875 2.04297,2.80859 4.72657,4.08593 7.78907,4.08593 h 22.22265 c 3.19141,0 5.74609,-1.27734 7.91797,-4.08593 2.17187,-2.8125 3.19531,-6.13282 3.19531,-10.21875 v -28.60938 c 0,-3.957031 1.14844,-7.40625 3.19141,-10.085938 C 83.140621,1.402343 85.820311,0 88.886721,0 c 6.1289,0 11.367179,2.808593 15.707029,8.425781 4.34375,5.621094 6.51562,12.390625 6.51562,20.179688 z m 0,0"
     id="path14" />
  <path
     style="fill:#9c9999;fill-opacity:1;fill-rule:evenodd;stroke:none"
     d="m 232.30859,128.85937 c 0,3.96094 -1.01953,7.41016 -3.0664,10.08985 -2.04297,2.8125 -4.59766,4.21484 -7.53516,4.21484 h -73.6875 c -5.75,0 -10.73047,-2.80859 -14.94531,-8.42969 -4.08594,-5.61718 -6.12891,-12.38672 -6.12891,-20.17578 V 28.605469 c 0,-7.789063 2.04297,-14.558594 6.12891,-20.179688 C 137.28906,2.808593 142.26953,0 148.01953,0 h 73.6875 c 2.9375,0 5.49219,1.402343 7.53516,4.214843 2.04687,2.679688 3.0664,6.128907 3.0664,10.085938 0,4.089844 -1.01953,7.410156 -3.0664,10.21875 -2.04297,2.683594 -4.59766,4.085938 -7.53516,4.085938 h -52.61719 c -2.9375,0 -5.49219,1.40625 -7.53515,4.214842 -2.04297,2.6836 -3.0625,6.12891 -3.0625,10.08985 0,4.08593 1.01953,7.40625 3.0625,10.21875 2.04296,2.80859 4.59765,4.08593 7.53515,4.08593 h 31.54688 c 2.9375,0 5.49218,1.40235 7.53515,4.21485 2.04297,2.80859 3.0625,6.1289 3.0625,10.08984 0,4.08594 -1.01953,7.40625 -3.0625,10.21484 -2.04297,2.8086 -4.59765,4.21485 -7.53515,4.21485 h -31.54688 c -2.9375,0 -5.49219,1.27734 -7.53515,4.08593 -2.04297,2.8125 -3.0625,6.13282 -3.0625,10.218749 0,3.95704 1.01953,7.40625 3.0625,10.08985 2.04296,2.80859 4.59765,4.21484 7.53515,4.21484 h 52.61719 c 2.9375,0 5.49219,1.40235 7.53516,4.08594 2.04687,2.80859 3.0664,6.12891 3.0664,10.21484"
     id="path16" />
  <path
     style="fill:#9c9999;fill-opacity:1;fill-rule:evenodd;stroke:none"
     d="m 331.03125,128.85937 c 0,3.96094 -1.01953,7.41016 -3.06641,10.08985 -2.16797,2.8125 -4.72265,4.21484 -7.78906,4.21484 h -65.13281 c -3.06641,0 -5.6211,-1.40234 -7.79297,-4.21484 -2.04297,-2.67969 -3.0625,-6.12891 -3.0625,-10.08985 V 28.605469 c 0,-7.789063 2.04297,-14.558594 6.38281,-20.179688 C 254.78515,2.808593 259.89453,0 265.89844,0 c 3.0625,0 5.61718,1.402343 7.66015,4.214843 2.17188,2.679688 3.19531,6.128907 3.19531,10.085938 V 100.2539 c 0,3.95704 1.01954,7.40625 3.19141,10.08985 2.04297,2.80859 4.59766,4.21484 7.66406,4.21484 h 32.56641 c 3.06641,0 5.62109,1.40235 7.78906,4.08594 2.04688,2.80859 3.06641,6.12891 3.06641,10.21484"
     id="path18" />
  <path
     style="fill:#9c9999;fill-opacity:1;fill-rule:evenodd;stroke:none"
     d="m 142.78125,278.41406 c 0,8.04688 -2.67969,14.81641 -8.17188,20.5625 -5.49218,5.61719 -12.00781,8.55469 -19.54297,8.55469 -3.82812,0 -7.14843,-1.40235 -9.83203,-4.21485 -2.68359,-2.80859 -3.96093,-6.25781 -3.96093,-10.34375 v -51.98046 c 0,-4.08594 -1.402349,-6 -4.085939,-6 -2.29688,0 -6.51172,2.9375 -12.64453,8.9375 -6.12891,6.0039 -12.89844,8.9414 -20.05078,8.9414 -7.15235,0 -13.91797,-2.9375 -20.05078,-8.9414 -6.12891,-6 -10.34375,-8.9375 -12.64063,-8.9375 -2.68359,0 -4.089844,1.91406 -4.089844,6 v 51.98046 c 0,4.08594 -1.402344,7.53516 -3.957031,10.34375 -2.683594,2.8125 -6.003906,4.21485 -9.835937,4.21485 -3.957032,0 -7.152344,-1.40235 -9.832032,-4.21485 C 1.402343,300.50781 0,297.05859 0,292.97265 V 176.88281 c 0,-4.08984 1.402343,-7.53516 4.085937,-10.34766 2.679688,-2.80859 5.875,-4.21484 9.832032,-4.21484 7.535156,0 14.050781,2.8125 19.542972,8.42969 l 31.03125,32.5664 c 2.55468,2.9375 5.75,4.34375 9.70703,4.34375 3.83203,0 7.15234,-1.40625 9.96093,-4.34375 l 34.867189,-36.65234 c 2.67969,-2.80859 6.00391,-4.34375 9.96094,-4.34375 3.57812,0 6.89844,1.40625 9.57812,4.21484 2.8125,2.8125 4.21485,6.25782 4.21485,10.34766 z m 0,0"
     id="path20" />
  <path
     style="fill:#9c9999;fill-opacity:1;fill-rule:evenodd;stroke:none"
     d="m 224.00781,275.22265 c -17.49609,0 -31.67187,-14.17968 -31.67187,-31.67578 0,-17.49609 14.17578,-31.67187 31.67187,-31.67187 17.49609,0 31.67188,14.17578 31.67188,31.67187 0,17.4961 -14.17579,31.67578 -31.67188,31.67578 z m 0,-95.40234 c -35.12109,0 -63.60156,28.48047 -63.60156,63.72656 0,35.1211 28.48047,63.60157 63.60156,63.60157 35.12109,0 63.73047,-28.48047 63.73047,-63.60157 0,-35.24609 -28.60938,-63.72656 -63.73047,-63.72656"
     id="path22" />
  <path
     style="fill:#9c9999;fill-opacity:1;fill-rule:evenodd;stroke:none"
     d="m 25.03125,369.85547 h -8.046875 v -20.4336 H 8.042969 v 20.4336 H 0 v -45.84766 l 8.042969,-0.12891 v 20.05079 h 8.941406 V 323.8789 h 8.046875 z m 0,0"
     id="path24" />
  <path
     style="fill:#9c9999;fill-opacity:1;fill-rule:evenodd;stroke:none"
     d="m 51.339841,358.48828 c 0,-0.76563 -0.38281,-1.40234 -1.27734,-1.91406 -0.89453,-0.51172 -1.91797,-0.76563 -3.06641,-0.76563 -1.27734,0 -2.29687,0.25391 -3.1914,0.76563 -0.76563,0.51172 -1.27735,1.14843 -1.27735,1.91406 v 3.96094 c 0,0.76562 0.51172,1.40625 1.27735,2.04297 0.89453,0.51171 1.91406,0.76562 3.1914,0.76562 1.14844,0 2.17188,-0.25391 3.06641,-0.76562 0.89453,-0.63672 1.27734,-1.27735 1.27734,-2.04297 z m 8.17188,4.08984 c 0,2.17188 -1.27735,4.08594 -3.70313,5.7461 -2.55468,1.53125 -5.49218,2.42578 -8.8125,2.42578 -3.57422,0 -6.51172,-0.89453 -8.9375,-2.42578 -2.42968,-1.66016 -3.57812,-3.57422 -3.57812,-5.875 v -3.96094 c 0,-2.16797 1.14844,-4.21094 3.57812,-5.74609 2.42578,-1.66016 5.36328,-2.42579 8.9375,-2.42579 1.40625,0 2.9375,0.12891 4.34375,0.51172 v -4.98047 c 0,-0.76562 -0.38281,-1.40625 -1.27734,-1.91796 -0.89453,-0.63672 -1.91797,-0.89454 -3.06641,-0.89454 -1.27734,0 -2.29687,0.25782 -3.1914,0.89454 -0.76563,0.51171 -1.27735,1.15234 -1.27735,1.91796 v 1.14844 h -8.04687 v -1.14844 c 0,-2.30078 1.14844,-4.21484 3.57812,-5.875 2.42578,-1.53515 5.36328,-2.30078 8.9375,-2.30078 3.44922,0 6.38672,0.76563 8.8125,2.30078 2.42578,1.66016 3.70313,3.57422 3.70313,5.875 z m 0,0"
     id="path26" />
  <path
     style="fill:#9c9999;fill-opacity:1;fill-rule:evenodd;stroke:none"
     d="m 85.695311,338.4375 h 8.04297 v 24.14062 c 0,2.17188 -1.27734,4.21485 -3.70313,5.7461 -2.42578,1.53125 -5.36328,2.42578 -8.8125,2.42578 -3.44531,0 -6.38281,-0.89453 -8.8125,-2.42578 -2.42578,-1.66016 -3.70312,-3.57422 -3.70312,-5.875 V 338.4375 h 8.04687 v 24.01172 c 0,0.76562 0.38282,1.40625 1.27735,2.04297 0.89453,0.51171 1.91406,0.76562 3.1914,0.76562 1.27735,0 2.30079,-0.25391 3.19532,-0.76562 0.89453,-0.63672 1.27734,-1.27735 1.27734,-2.04297 z m 0,0"
     id="path28" />
  <path
     style="fill:#9c9999;fill-opacity:1;fill-rule:evenodd;stroke:none"
     d="m 126.8164,368.45312 c -2.42578,1.53125 -5.36328,2.29688 -8.68359,2.29688 -3.44922,0 -6.38672,-0.89453 -8.8125,-2.42578 -2.42578,-1.66016 -3.70312,-3.57422 -3.70312,-5.875 v -19.79688 h -3.83204 v -5.49219 h 3.83204 v -13.15234 h 8.04687 v 13.15234 h 7.53516 v 5.49219 h -7.53516 v 19.79688 c 0,0.76562 0.51172,1.40625 1.40234,2.04297 0.76954,0.51171 1.78907,0.76562 3.06641,0.76562 1.14844,0 2.17188,-0.25391 3.06641,-0.76562 1.78515,1.27734 3.70312,2.55468 5.61718,3.96093"
     id="path30" />
  <path
     style="fill:#9c9999;fill-opacity:1;fill-rule:evenodd;stroke:none"
     d="m 144.05859,343.92969 c -0.89453,0.51171 -1.27734,1.15234 -1.27734,1.91796 v 4.85157 h 8.9414 v -4.85157 c 0,-0.76562 -0.38281,-1.40625 -1.27734,-1.91796 -0.89453,-0.63672 -1.91797,-0.89454 -3.19531,-0.89454 -1.14844,0 -2.29688,0.25782 -3.19141,0.89454 z m 7.66406,17.37109 h 8.17188 v 1.14844 c 0,2.30078 -1.27734,4.21484 -3.70313,5.875 -2.42578,1.53125 -5.36328,2.42578 -8.8125,2.42578 -3.44921,0 -6.51171,-0.89453 -8.9375,-2.42578 -2.42968,-1.66016 -3.57812,-3.57422 -3.57812,-5.875 v -16.60157 c 0,-2.30078 1.14844,-4.21484 3.57812,-5.875 2.42579,-1.53515 5.48829,-2.30078 8.9375,-2.30078 3.44922,0 6.38672,0.76563 8.8125,2.30078 2.42579,1.66016 3.70313,3.57422 3.70313,5.875 v 10.34375 h -17.11328 v 6.25782 c 0,0.76562 0.38281,1.40625 1.27734,2.04297 0.89453,0.51171 2.04297,0.76562 3.19141,0.76562 1.27734,0 2.30078,-0.25391 3.19531,-0.76562 0.89453,-0.63672 1.27734,-1.27735 1.27734,-2.04297 z m 0,0"
     id="path32" />
  <path
     style="fill:#9c9999;fill-opacity:1;fill-rule:evenodd;stroke:none"
     d="m 208.17187,369.85547 h -18.13672 c -1.78906,0 -3.44921,-0.38282 -4.85156,-1.27735 -1.40625,-0.89062 -2.17187,-1.91406 -2.17187,-3.1914 v -36.78125 c 0,-1.27735 0.76562,-2.30078 2.17187,-3.32032 1.27735,-0.89453 2.9375,-1.40625 4.85156,-1.40625 h 17.4961 v 5.49219 h -16.47266 v 14.4336 h 13.66406 v 5.48828 h -13.66406 v 15.07031 h 17.11328 z m 0,0"
     id="path34" />
  <path
     style="fill:#9c9999;fill-opacity:1;fill-rule:evenodd;stroke:none"
     d="m 232.94922,362.0664 h 8.04297 v 0.38282 c 0,2.30078 -1.14844,4.21484 -3.57422,5.875 -2.42578,1.53125 -5.49219,2.42578 -8.94141,2.42578 -3.44922,0 -6.38281,-0.89453 -8.8125,-2.42578 -2.42578,-1.66016 -3.70312,-3.57422 -3.70312,-5.875 v -16.60157 c 0,-2.30078 1.27734,-4.21484 3.70312,-5.875 2.42969,-1.53515 5.36328,-2.42578 8.8125,-2.42578 3.44922,0 6.51563,0.89063 8.94141,2.42578 2.42578,1.66016 3.57422,3.57422 3.57422,5.875 v 0.51172 h -8.04297 v -0.51172 c 0,-0.76562 -0.38672,-1.40625 -1.27735,-2.04296 -0.89453,-0.51172 -1.91797,-0.76954 -3.19531,-0.76954 -1.14844,0 -2.17187,0.25782 -3.0625,0.76954 -0.89453,0.63671 -1.27734,1.27734 -1.27734,2.04296 v 16.60157 c 0,0.76562 0.38281,1.40625 1.27734,2.04297 0.89063,0.51171 1.91406,0.76562 3.0625,0.76562 1.27734,0 2.30078,-0.25391 3.19531,-0.76562 0.89063,-0.63672 1.27735,-1.27735 1.27735,-2.04297 z m 0,0"
     id="path36" />
  <path
     style="fill:#9c9999;fill-opacity:1;fill-rule:evenodd;stroke:none"
     d="m 267.04687,345.84765 c 0,-0.76562 -0.38281,-1.40625 -1.27734,-2.04296 -0.89453,-0.51172 -1.91406,-0.76954 -3.06641,-0.76954 -1.14843,0 -2.29687,0.25782 -3.0625,0.76954 -0.89453,0.63671 -1.40625,1.27734 -1.40625,2.04296 v 16.60157 c 0,0.76562 0.51172,1.40625 1.40625,2.04297 0.76563,0.51171 1.91407,0.76562 3.0625,0.76562 1.15235,0 2.17188,-0.25391 3.06641,-0.76562 0.89453,-0.63672 1.27734,-1.27735 1.27734,-2.04297 z m 8.17188,16.60157 c 0,2.30078 -1.27344,4.21484 -3.70313,5.875 -2.42578,1.53125 -5.36328,2.42578 -8.8125,2.42578 -3.44531,0 -6.38281,-0.89453 -8.8125,-2.42578 -2.42578,-1.66016 -3.70312,-3.57422 -3.70312,-5.875 v -16.60157 c 0,-2.30078 1.27734,-4.21484 3.70312,-5.875 2.42969,-1.53515 5.36719,-2.42578 8.8125,-2.42578 3.44922,0 6.38672,0.89063 8.8125,2.42578 2.42969,1.66016 3.70313,3.57422 3.70313,5.875 z m 0,0"
     id="path38" />
  <path
     style="fill:#9c9999;fill-opacity:1;fill-rule:evenodd;stroke:none"
     d="m 292.58984,362.44922 c 0,0.76562 0.38281,1.40625 1.27735,2.04297 0.89453,0.51171 1.91406,0.76562 3.1914,0.76562 0,2.42969 0,4.21484 0,5.49219 -3.44531,0 -6.38281,-0.89453 -8.8125,-2.42578 -2.42578,-1.66016 -3.70312,-3.57422 -3.70312,-5.875 v -38.44141 h 8.04687 z m 0,0"
     id="path40" />
  <path
     style="fill:#9c9999;fill-opacity:1;fill-rule:evenodd;stroke:none"
     d="m 315.57812,343.92969 c -0.89453,0.51171 -1.27734,1.15234 -1.27734,1.91796 v 4.85157 h 8.94141 v -4.85157 c 0,-0.76562 -0.38282,-1.40625 -1.27735,-1.91796 -0.89453,-0.63672 -1.91797,-0.89454 -3.19531,-0.89454 -1.27734,0 -2.29688,0.25782 -3.19141,0.89454 z m 7.66407,17.37109 h 8.04687 v 1.14844 c 0,2.30078 -1.15234,4.21484 -3.57812,5.875 -2.55469,1.53125 -5.49219,2.42578 -8.8125,2.42578 -3.57422,0 -6.51172,-0.89453 -8.94141,-2.42578 -2.42578,-1.66016 -3.57422,-3.57422 -3.57422,-5.875 v -16.60157 c 0,-2.30078 1.14844,-4.21484 3.57422,-5.875 2.42969,-1.53515 5.36719,-2.30078 8.94141,-2.30078 3.32031,0 6.25781,0.76563 8.8125,2.30078 2.42578,1.66016 3.57812,3.57422 3.57812,5.875 v 10.34375 h -16.98828 v 6.25782 c 0,0.76562 0.38281,1.40625 1.27734,2.04297 0.89453,0.51171 1.91407,0.76562 3.19141,0.76562 1.27734,0 2.30078,-0.25391 3.19531,-0.76562 0.89453,-0.63672 1.27735,-1.27735 1.27735,-2.04297 z m 0,0"
     id="path42" />
  <path
     style="fill:#9c9999;fill-opacity:1;fill-rule:evenodd;stroke:none"
     d="M 25.15625,427.32812 H 7.148437 c -1.785156,0 -3.445312,-0.51172 -4.851562,-1.27734 -1.40625,-0.89453 -2.042969,-1.91797 -2.042969,-3.19141 v -41.50781 h 7.917969 v 40.48438 H 25.15625 Z m 0,0"
     id="path44" />
  <path
     style="fill:#9c9999;fill-opacity:1;fill-rule:evenodd;stroke:none"
     d="m 38.183591,395.78125 h -7.66015 v 31.54687 h 7.66015 z m 0,-5.36328 h -7.66015 v -5.49219 h 7.66015 z m 0,0"
     id="path46" />
  <path
     style="fill:#9c9999;fill-opacity:1;fill-rule:evenodd;stroke:none"
     d="m 62.066401,403.3164 c 0,-0.76562 -0.38281,-1.53125 -1.27734,-2.04296 -0.89453,-0.51172 -1.91406,-0.89454 -3.06641,-0.89454 -1.14843,0 -2.16796,0.38282 -3.06249,0.89454 -0.89454,0.51171 -1.27735,1.27734 -1.27735,2.04296 v 16.60547 c 0,0.76563 0.38281,1.40235 1.27735,1.91407 0.89453,0.63671 1.91406,0.89453 3.06249,0.89453 1.15235,0 2.17188,-0.25782 3.06641,-0.89453 0.89453,-0.51172 1.27734,-1.14844 1.27734,-1.91407 z m 8.04688,16.60547 c 0,2.29688 -1.14844,4.21094 -3.57813,5.875 -2.42578,1.53125 -5.36328,2.42578 -8.8125,2.42578 -3.44531,0 -6.25781,-0.89453 -8.80859,-2.42578 -2.42969,-1.66406 -3.57812,-3.57812 -3.57812,-5.875 v -38.44531 h 8.04687 v 14.17969 c 1.40625,-0.38281 2.8086,-0.64063 4.33984,-0.64063 3.44922,0 6.38672,0.76563 8.8125,2.42578 2.42969,1.53516 3.57813,3.44922 3.57813,5.75 z m 0,0"
     id="path48" />
  <path
     style="fill:#9c9999;fill-opacity:1;fill-rule:evenodd;stroke:none"
     d="m 83.523441,427.32812 h -8.04688 V 403.1914 c 0,-2.30078 1.27734,-4.21484 3.70313,-5.75 2.42578,-1.66015 5.36328,-2.42578 8.8125,-2.42578 3.32031,0 6.13281,0.76563 8.55859,2.30078 l -5.62109,3.82813 c -0.89454,-0.50781 -1.91407,-0.76563 -2.9375,-0.76563 -1.27735,0 -2.29688,0.38282 -3.19141,0.89454 -0.76563,0.51171 -1.27734,1.27734 -1.27734,2.04296 z m 0,0"
     id="path50" />
  <path
     style="fill:#9c9999;fill-opacity:1;fill-rule:evenodd;stroke:none"
     d="m 105.87109,401.27344 c -0.89062,0.64062 -1.27734,1.27734 -1.27734,2.04296 v 4.85547 h 8.9414 v -4.85547 c 0,-0.76562 -0.51171,-1.40234 -1.27734,-2.04296 -0.89453,-0.51172 -1.91406,-0.76563 -3.19141,-0.76563 -1.27734,0 -2.30078,0.25391 -3.19531,0.76563 z m 7.66406,17.49609 h 8.04688 v 1.15234 c 0,2.29688 -1.27734,4.21094 -3.70313,5.875 -2.42578,1.53125 -5.36328,2.42578 -8.6875,2.42578 -3.57421,0 -6.51171,-0.89453 -8.80859,-2.42578 -2.429689,-1.66406 -3.707029,-3.57812 -3.707029,-5.875 V 403.3164 c 0,-2.29687 1.27734,-4.21484 3.707029,-5.875 2.29688,-1.53125 5.23438,-2.29687 8.80859,-2.29687 3.32422,0 6.26172,0.76562 8.6875,2.29687 2.42579,1.66016 3.70313,3.57813 3.70313,5.875 v 10.21875 h -16.98828 v 6.38672 c 0,0.76563 0.38672,1.40235 1.27734,2.04297 0.89453,0.50781 1.91797,0.76563 3.19531,0.76563 1.27735,0 2.29688,-0.25782 3.19141,-0.76563 0.76563,-0.64062 1.27734,-1.27734 1.27734,-2.04297 z m 0,0"
     id="path52" />
  <path
     style="fill:#9c9999;fill-opacity:1;fill-rule:evenodd;stroke:none"
     d="m 173.5625,381.47656 v 45.85156 h -7.91797 v -31.80078 c -3.06641,5.875 -5.10938,9.57813 -6.00391,11.10938 -0.38281,0.51172 -1.14843,0.89453 -2.30078,0.89453 -1.27734,0 -2.04297,-0.38281 -2.42578,-0.89453 l -6.12891,-11.10938 v 31.80078 h -7.79296 v -45.85156 h 7.79296 l 8.42969,16.47656 8.42969,-16.47656 z m 0,0"
     id="path54" />
  <path
     style="fill:#9c9999;fill-opacity:1;fill-rule:evenodd;stroke:none"
     d="m 197.1875,403.3164 c 0,-0.76562 -0.38281,-1.53125 -1.27735,-2.04296 -0.89453,-0.51172 -1.91406,-0.76563 -3.0664,-0.76563 -1.27735,0 -2.29688,0.25391 -3.0625,0.76563 -0.89453,0.51171 -1.40625,1.27734 -1.40625,2.04296 v 16.60547 c 0,0.76563 0.51172,1.40235 1.40625,2.04297 0.76562,0.50781 1.78515,0.76563 3.0625,0.76563 1.15234,0 2.17187,-0.25782 3.0664,-0.76563 0.89454,-0.64062 1.27735,-1.27734 1.27735,-2.04297 z m 8.04687,16.60547 c 0,2.29688 -1.14843,4.21094 -3.57812,5.875 -2.42578,1.53125 -5.36328,2.42578 -8.8125,2.42578 -3.44531,0 -6.38281,-0.89453 -8.8086,-2.42578 -2.42968,-1.66406 -3.70703,-3.57812 -3.70703,-5.875 V 403.3164 c 0,-2.29687 1.27735,-4.21484 3.70703,-5.875 2.42579,-1.66015 5.36329,-2.42578 8.8086,-2.42578 3.44922,0 6.38672,0.76563 8.8125,2.42578 2.42969,1.66016 3.57812,3.57813 3.57812,5.875 z m 0,0"
     id="path56" />
  <path
     style="fill:#9c9999;fill-opacity:1;fill-rule:evenodd;stroke:none"
     d="m 232.82031,410.72656 c 2.42578,1.53125 3.57422,3.44531 3.57422,5.74609 v 3.44922 c 0,2.29688 -1.14844,4.21094 -3.57422,5.875 -2.42578,1.53125 -5.36328,2.42578 -8.8125,2.42578 -3.32031,0 -6.25781,-0.89453 -8.68359,-2.42578 -2.42969,-1.66406 -3.70313,-3.57812 -3.70313,-5.875 v -1.40625 h 8.04297 v 1.40625 c 0,0.76563 0.38281,1.40235 1.27734,1.91407 0.89454,0.63671 1.91797,0.89453 3.06641,0.89453 1.27734,0 2.42578,-0.25782 3.19141,-0.89453 0.89453,-0.51172 1.40625,-1.14844 1.40625,-1.91407 v -3.44922 c 0,-0.76562 -0.51172,-1.40625 -1.27735,-1.91796 -0.89453,-0.63672 -1.78906,-0.89063 -2.9375,-1.01954 h -0.2539 c -3.44922,0 -6.38672,-0.76562 -8.8125,-2.42578 -2.42969,-1.53515 -3.70313,-3.44922 -3.70313,-5.75 v -2.04297 c 0,-2.29687 1.27344,-4.21484 3.70313,-5.875 2.42578,-1.66015 5.36328,-2.42578 8.68359,-2.42578 3.44922,0 6.38672,0.76563 8.8125,2.42578 2.42578,1.66016 3.57422,3.57813 3.57422,5.875 v 0.76563 h -7.78906 v -0.76563 c 0,-0.76562 -0.51172,-1.53125 -1.40625,-2.04296 -0.76563,-0.51172 -1.91407,-0.76563 -3.19141,-0.76563 -1.14844,0 -2.17187,0.25391 -3.06641,0.76563 -0.89453,0.51171 -1.27734,1.27734 -1.27734,2.04296 v 2.04297 c 0,0.76953 0.38281,1.40625 1.27734,2.04688 0.76563,0.50781 1.78907,0.76562 2.9375,0.89062 h 0.12891 c 3.44922,0 6.38672,0.76953 8.8125,2.42969"
     id="path58" />
  <path
     style="fill:#9c9999;fill-opacity:1;fill-rule:evenodd;stroke:none"
     d="m 259.64062,415.96094 c 0,-0.76563 -0.38281,-1.40625 -1.27734,-1.91407 -0.89453,-0.51172 -1.91797,-0.89453 -3.06641,-0.89453 -1.14843,0 -2.17187,0.38281 -3.0664,0.89453 -0.89063,0.50782 -1.27344,1.14844 -1.27344,1.91407 v 3.96093 c 0,0.76563 0.38281,1.40235 1.27344,1.91407 0.89453,0.63671 1.91797,0.89453 3.0664,0.89453 1.14844,0 2.17188,-0.25782 3.06641,-0.89453 0.89453,-0.51172 1.27734,-1.14844 1.27734,-1.91407 z m 8.04688,3.96093 c 0,2.29688 -1.15235,4.21094 -3.57813,5.875 -2.55468,1.53125 -5.36328,2.42578 -8.8125,2.42578 -3.44922,0 -6.38672,-0.89453 -8.8125,-2.42578 -2.42578,-1.66406 -3.57422,-3.57812 -3.57422,-5.875 v -3.96093 c 0,-2.17188 1.14844,-4.21485 3.57422,-5.7461 2.42578,-1.66015 5.36328,-2.42578 8.8125,-2.42578 1.53516,0 2.9375,0.125 4.34375,0.50781 v -4.98047 c 0,-0.76562 -0.38281,-1.40234 -1.27734,-2.04296 -0.89453,-0.51172 -1.91797,-0.76563 -3.06641,-0.76563 -1.14843,0 -2.17187,0.25391 -3.0664,0.76563 -0.89063,0.64062 -1.27344,1.27734 -1.27344,2.04296 v 1.15235 h -8.04688 v -1.15235 c 0,-2.29687 1.14844,-4.21484 3.57422,-5.875 2.42578,-1.53125 5.36328,-2.29687 8.8125,-2.29687 3.44922,0 6.38672,0.76562 8.8125,2.29687 2.42578,1.66016 3.57813,3.57813 3.57813,5.875 z m 0,0"
     id="path60" />
  <path
     style="fill:#9c9999;fill-opacity:1;fill-rule:evenodd;stroke:none"
     d="m 282.75781,427.32812 h -7.92187 V 403.1914 c 0,-2.30078 1.27734,-4.21484 3.70703,-5.75 2.42578,-1.66015 5.36328,-2.42578 8.8125,-2.42578 3.32031,0 6.25781,0.76563 8.68359,2.42578 2.42578,1.53516 3.70313,3.44922 3.70313,5.75 l -0.12891,0.125 0.12891,24.01172 h -8.04688 V 403.3164 c 0,-0.76562 -0.38281,-1.53125 -1.27734,-2.04296 -0.89453,-0.51172 -1.91407,-0.89454 -3.19141,-0.89454 -1.27734,0 -2.30078,0.38282 -3.19531,0.89454 -0.89063,0.51171 -1.27344,1.27734 -1.27344,2.04296 z m 0,0"
     id="path62" />
  <path
     style="fill:#9c9999;fill-opacity:1;fill-rule:evenodd;stroke:none"
     d="m 315.83203,401.27344 c -0.76563,0.64062 -1.27734,1.27734 -1.27734,2.04296 v 4.85547 h 8.9414 v -4.85547 c 0,-0.76562 -0.38281,-1.40234 -1.27734,-2.04296 -0.89453,-0.51172 -1.91406,-0.76563 -3.19141,-0.76563 -1.14844,0 -2.30078,0.25391 -3.19531,0.76563 z m 7.66406,17.49609 h 8.04688 v 1.15234 c 0,2.29688 -1.14844,4.21094 -3.70313,5.875 -2.42578,1.53125 -5.36328,2.42578 -8.6875,2.42578 -3.44531,0 -6.38281,-0.89453 -8.80859,-2.42578 -2.42969,-1.66406 -3.57813,-3.57812 -3.57813,-5.875 V 403.3164 c 0,-2.29687 1.14844,-4.21484 3.57813,-5.875 2.42578,-1.53125 5.36328,-2.29687 8.80859,-2.29687 3.32422,0 6.26172,0.76562 8.6875,2.29687 2.55469,1.66016 3.70313,3.57813 3.70313,5.875 v 10.21875 h -16.98828 v 6.38672 c 0,0.76563 0.51171,1.40235 1.27734,2.04297 0.89453,0.50781 2.04687,0.76563 3.19531,0.76563 1.27735,0 2.29688,-0.25782 3.19141,-0.76563 0.89453,-0.64062 1.27734,-1.27734 1.27734,-2.04297 z m 0,0"
     id="path64" />
</svg>
